<svg xmlns="http://www.w3.org/2000/svg">

  <symbol id="cat-slim" width="50" height="53" viewBox="0 0 50 53" fill="none"><circle cx="25" cy="28" r="25" fill="#68B738"/><g clip-path="url(#a)"><path d="M35.203 0h-.195c-.33.187-.593.474-.75.82a8.028 8.028 0 0 0-.664 1.757.84.84 0 0 1-.761.691 3.77 3.77 0 0 0-2.69 1.948c-.372.661-.69 1.35-.952 2.062-.73 1.897-1.29 3.856-1.98 5.768-.324.872-.339.872-1.316.872-1.168 0-1.085-.18-1.1 1.108 0 .407.123.613.555.593.133 0 .334-.067.385.108.052.175-.123.252-.226.355a4.626 4.626 0 0 1-2.227 1.258c-.977.263-1.975.47-2.926.789-2.443.82-4.7 1.964-6.46 3.902a14.436 14.436 0 0 0-2.437 4.041c-1.888 4.454-2.803 9.145-3.513 13.882a97.062 97.062 0 0 0-.75 6.7C7.102 47.759 7 48.877 7 50h17.141a1.126 1.126 0 0 0-.118-.66 2.577 2.577 0 0 0-1.97-1.582c-.36-.083-.401-.191-.18-.475.36-.482.637-1.022.818-1.597.838-2.48 1.162-5.067 1.568-7.63.23-1.956.83-3.85 1.77-5.582a11.126 11.126 0 0 1 2.874-3.283c.427-.325.443-.325.515.227.051.366.061.742.087 1.113a48.166 48.166 0 0 1-.092 7.31 31.866 31.866 0 0 0-.078 5.67A38.826 38.826 0 0 0 30.503 50h6.84a2.79 2.79 0 0 0-2.18-2.289 4.62 4.62 0 0 0-1.934.103c-.309.073-.438 0-.463-.335a29.113 29.113 0 0 1 .514-8.154 91.803 91.803 0 0 0 1.574-9.371 9.163 9.163 0 0 1 1.172-3.609c.612-1.092 1.147-2.226 1.749-3.324a3.031 3.031 0 0 0 .216-2.676c-.139-.366-.273-.737-.442-1.087-.515-1.005-1.029-2-1.502-3.016-.252-.515-.196-.577.365-.593.838 0 .838 0 .854-.845v-.34c0-.356-.134-.552-.515-.516h-.781c-.355 0-.458-.149-.37-.515a3.217 3.217 0 0 1 2.638-2.284 11.291 11.291 0 0 1 3.404.222.513.513 0 0 0 .643-.33c.206-.515.432-1.03.664-1.546a.517.517 0 0 0-.052-.588c-1.646-2.093-3.43-4.046-5.863-5.299a.767.767 0 0 1-.452-.577 10.123 10.123 0 0 0-.653-2.144A1.803 1.803 0 0 0 35.203 0Z" fill="#000"/></g><defs><clipPath id="a"><path fill="#fff" transform="translate(7)" d="M0 0h36v50H0z"/></clipPath></defs></symbol>
  <symbol id="cat-weight" width="67" height="50" viewBox="0 0 67 50" fill="none"><circle cx="34" cy="25" r="25" fill="#68B738"/><g clip-path="url(#a)"><path d="M61.56 13.878a7.602 7.602 0 0 1 2.25-2.3c.5-.35.8-.35 1.1.3.4.95.75 1.95.45 3a1.144 1.144 0 0 0 .2 1.05c.3.4.55.8.8 1.15a3.135 3.135 0 0 1 .45 3.1 2.716 2.716 0 0 0-.1 1.55c.099.495.099 1.005 0 1.5a1.875 1.875 0 0 1-1.35 1.6c-.64.122-1.211.479-1.6 1a.525.525 0 0 1-.45.25c-.6.1-2.1-1.25-2.1-1.85v-.3c.05-1.8-.05-1.95-1.7-2.7a2.195 2.195 0 0 1-.9-.6c-.3-.4-.7-.35-1.15-.2-.45.15-.7.45-.65.95.15 1.21.2 2.432.15 3.65a.94.94 0 0 0 .1.4c1.55 2.25 2.15 4.9 2.9 7.45.6 1.95 1.7 3 3.7 3.15.32.026.637.076.95.15a2.08 2.08 0 0 1 1.7 1.6c.35 1.05.15 1.3-.9 1.3h-3.25a1.62 1.62 0 0 1-1.15-.4 5.856 5.856 0 0 0-1.7-1 3.63 3.63 0 0 1-1.7-1.3 14.307 14.307 0 0 0-2-2.25c-1.4-1.45-2.9-2.85-4.2-4.35a5.69 5.69 0 0 1-1.6-3.8c0-.45-.1-.65-.6-.45a.965.965 0 0 1-.5.15c-1.4 0-2.1.85-2.6 2.1-.45 1.05-1.05 2.05-1.6 3.1a5.195 5.195 0 0 0-.5 2.1c0 1.2.3 1.6 1.4 2 .7.25 1.35.5 1.7 1.2.4.8.3 1-.55 1.05h-3.4a.94.94 0 0 1-.95-.55l-.9-1.5a3.025 3.025 0 0 1-.35-2.7 5.93 5.93 0 0 0 .05-2.65 4.21 4.21 0 0 1 .85-3.5c.3-.35.3-.5-.2-.6a25.03 25.03 0 0 1-5.9-2.05.05.05 0 0 1-.05-.05c-1.6-.6-1.9-.5-2.35 1.15-.4 1.4-.8 2.8-1.1 4.25-.35 1.6.05 3.1.55 4.6.2.6.8.55 1.25.7 1 .3 1.85.7 2.25 1.75.35.8.3.9-.55.9-.85 0-1.7-.05-2.6 0a3.32 3.32 0 0 1-2.1-.7c-2.4-1.6-3.1-4.05-3.3-6.7-.1-1.65-1-2.95-2.05-4.2-.2-.25-.4-.35-.7-.15a22.156 22.156 0 0 1-3.35 1.5 13.355 13.355 0 0 0-6.1 4.4 5.315 5.315 0 0 0-1.1 2.55c-.15.9.1 1.3 1 1.55s1.35.75 1.45 1.7c.05.4-.1.6-.5.6h-4.05a.824.824 0 0 1-.65-.4 4.28 4.28 0 0 1-.95-2.75 25.307 25.307 0 0 1 .45-5.15 3.152 3.152 0 0 1 1.7-2.4c2.95-1.4 4.5-4.05 5.9-6.8.3-.55.05-.65-.45-.6a8.236 8.236 0 0 0-3.85 1.6 35.317 35.317 0 0 0-4.15 3.55 8.335 8.335 0 0 1-5.15 2.45c-3.65.2-5.35-1.85-5.2-5.15a4.845 4.845 0 0 1 1.2-3.05 2.125 2.125 0 0 1 2.25-.75c.75.2.95.6.65 1.35-.15.3-.35.55-.5.85a3.751 3.751 0 0 0-.5 1c-.55 1.5.2 2.55 1.75 2.7 1.65.15 3-.55 4.25-1.55a22.466 22.466 0 0 0 4-4.15 10.396 10.396 0 0 1 7.2-4.05c1.15-.15 2.15-.65 3.25-.95 2.056-.627 4.199-.93 6.35-.9a6.5 6.5 0 0 0 2.9-.55c2.45-1 5-1 7.55-.5 2 .4 4 .9 5.95 1.4a8.288 8.288 0 0 0 3.5-.1 33.9 33.9 0 0 1 6.7-1 9.081 9.081 0 0 1 4.3.85c1 .45 1 .45.75 1.4Z" fill="#000"/></g><defs><clipPath id="a"><path fill="#fff" transform="translate(0 11)" d="M0 0h67v28H0z"/></clipPath></defs></symbol>
  <symbol id="vk" width="29" height="22" viewBox="0 0 29 22" fill="none"><g clip-path="url(#a)"><path d="M1.5 5.339c0-.855.515-1.316 1.545-1.383l3.97.025a.52.52 0 0 1 .533.377c.409 1.257.866 2.343 1.372 3.257.506.913 1.168 1.965 1.985 3.156.071.15.187.226.346.226.125 0 .223-.059.293-.176l.08-.277.027-4.35c0-.302-.075-.503-.226-.604-.151-.1-.431-.176-.84-.226-.32-.05-.48-.235-.48-.553 0-.067.01-.118.027-.151.373-1.09 1.44-1.635 3.198-1.635L14.822 3c.675 0 1.234.16 1.678.478.444.318.666.821.666 1.509v5.708c.125.084.24.126.347.126.266 0 .497-.15.692-.453 1.954-2.582 3.011-4.308 3.17-5.18 0-.017.019-.059.054-.126.125-.251.329-.47.613-.654.284-.184.533-.31.746-.377a.554.554 0 0 1 .24-.05h4.13l.266.025c.355 0 .63.16.826.478.07.1.12.21.146.327.027.117.045.234.054.352.009.117.013.184.013.2v.177c-.124.687-.44 1.42-.946 2.2-.506.78-1.15 1.622-1.931 2.528-.782.905-1.27 1.5-1.466 1.785-.16.201-.24.386-.24.553 0 .135.071.286.213.453l3.89 4.627c.213.269.32.562.32.88 0 .386-.16.705-.48.956-.32.252-.701.394-1.145.428l-.453.025h-4.05a.855.855 0 0 0-.106.012.862.862 0 0 1-.107.013c-.39 0-.755-.16-1.092-.478-.125-.134-.96-1.123-2.505-2.967a1.387 1.387 0 0 0-.373-.327c-.07.268-.164.654-.28 1.157-.115.503-.2.863-.253 1.081l-.08.427c-.177.587-.55.94-1.119 1.057l-.373.025h-2.61c-1.475 0-2.945-.637-4.41-1.911-1.466-1.275-2.784-2.922-3.957-4.942-1.172-2.02-2.264-4.372-3.277-7.054a1.916 1.916 0 0 1-.133-.73Zm16.013 6.513c-.373 0-.71-.096-1.013-.29-.302-.192-.453-.456-.453-.791V4.987c0-.336-.089-.575-.266-.717-.178-.143-.489-.214-.933-.214l-1.518.05c-.764 0-1.341.126-1.732.378.781.352 1.172.922 1.172 1.71v4.426a1.5 1.5 0 0 1-.533 1.044 1.59 1.59 0 0 1-1.066.414c-.532 0-.94-.243-1.225-.729C8.56 9.371 7.53 7.493 6.856 5.716l-.24-.654-3.544-.025c-.231 0-.36.013-.386.038-.027.025-.04.096-.04.213 0 .151.017.31.053.478l.56 1.409c1.491 3.638 3.112 6.505 4.862 8.6 1.75 2.096 3.468 3.144 5.155 3.144h2.665c.106 0 .186-.03.24-.088.053-.06.097-.172.133-.34l.053-.251.506-2.213c.142-.302.267-.503.373-.604a.975.975 0 0 1 .693-.277c.426 0 .861.243 1.305.73l2.265 2.716c.142.218.293.327.453.327h4.396c.533 0 .8-.126.8-.378a.466.466 0 0 0-.08-.251l-3.864-4.552c-.302-.352-.453-.73-.453-1.131 0-.403.142-.788.427-1.157.23-.336.679-.893 1.345-1.673a37.63 37.63 0 0 0 1.745-2.187c.498-.68.826-1.296.986-1.849l.08-.327a.371.371 0 0 1-.027-.163.574.574 0 0 0-.026-.189h-4.183c-.267.1-.48.252-.64.453l-.16.478c-.444 1.156-1.607 2.942-3.49 5.356a1.892 1.892 0 0 1-1.305.503Z" fill="#666"/></g><defs><clipPath id="a"><path fill="#fff" transform="translate(.5)" d="M0 0h28v22H0z"/></clipPath></defs></symbol>
  <symbol id="youtube" width="29" height="22" viewBox="0 0 29 22" fill="none"><path d="m18.35 10.793-5.236-3.491a.655.655 0 0 0-1.014.545v6.982a.654.654 0 0 0 1.014.546l5.237-3.491a.655.655 0 0 0 0-1.091Zm-4.94 2.814V9.07l3.403 2.27-3.404 2.268Zm12.48-8.563a2.4 2.4 0 0 0-1.452-1.637C20.718 1.978 14.751 2 14.5 2c-.25 0-6.218-.022-9.938 1.407A2.4 2.4 0 0 0 3.11 5.044C2.827 6.113 2.5 8.076 2.5 11.338c0 3.262.327 5.226.61 6.295a2.4 2.4 0 0 0 1.452 1.636c3.72 1.43 9.687 1.407 9.938 1.407h.076c.753 0 6.317-.043 9.862-1.407a2.4 2.4 0 0 0 1.451-1.636c.284-1.07.611-3.033.611-6.295s-.327-5.225-.61-6.294Zm-1.266 12.261a1.09 1.09 0 0 1-.655.742c-3.49 1.342-9.404 1.32-9.469 1.32-.066 0-5.978.022-9.47-1.32a1.09 1.09 0 0 1-.654-.742c-.261-1.003-.567-2.847-.567-5.967 0-3.12.306-4.963.567-5.967a1.09 1.09 0 0 1 .655-.742c3.49-1.342 9.404-1.32 9.469-1.32.066 0 5.978-.022 9.47 1.32a1.092 1.092 0 0 1 .654.742c.262 1.004.567 2.847.567 5.967 0 3.12-.305 4.964-.567 5.967Z" fill="#666"/></symbol>
  <symbol id="telegram" width="29" height="22" viewBox="0 0 29 22" fill="none"><path fill-rule="evenodd" clip-rule="evenodd" d="M23.96 3.153c.18.15.265.382.227.611l-2.626 15.757a.657.657 0 0 1-1.012.439l-7.878-5.253a.657.657 0 0 1-.149-.956l2.611-3.263-4.36 2.906a.657.657 0 0 1-.658.041L4.863 10.81a.657.657 0 0 1 .073-1.205l18.383-6.566a.657.657 0 0 1 .642.115Zm-17.134 7.17 3.536 1.768 7.561-5.041a.656.656 0 0 1 .877.956l-4.805 6.006 6.438 4.292L22.708 4.65 6.826 10.323Z" fill="#666"/></symbol>
  <symbol id="logo-title" width="112" height="16" viewBox="0 0 112 16" fill="none"><path d="M9.752 1.036V12.5H8.2V7.284H2.016V12.5H.464V1.036h1.552v5.112H8.2V1.036h1.552ZM20.435 2.34h-3.712V12.5h-1.544V2.34h-3.72V1.036h8.976V2.34Zm13.629-1.304V12.5h-1.36V4.076c0-.112.002-.232.008-.36l.032-.392-3.936 7.168c-.123.24-.31.36-.56.36h-.224c-.25 0-.438-.12-.56-.36l-4.016-7.2c.032.283.048.544.048.784V12.5h-1.36V1.036h1.144c.139 0 .245.013.32.04.074.027.146.101.216.224l3.96 7.056c.064.128.125.261.184.4.064.139.122.28.176.424.053-.144.11-.285.168-.424.059-.144.123-.28.192-.408L32.384 1.3c.064-.123.133-.197.208-.224.08-.027.19-.04.328-.04h1.144Zm9.435 10.16V12.5h-6.504V1.036h1.544v10.16h4.96ZM54.38 8.244l-1.8-4.664a9.548 9.548 0 0 1-.336-1.072 8.706 8.706 0 0 1-.344 1.08l-1.8 4.656h4.28Zm3.232 4.256h-1.2a.517.517 0 0 1-.336-.104.64.64 0 0 1-.192-.264l-1.072-2.768h-5.144l-1.072 2.768a.562.562 0 0 1-.184.256.51.51 0 0 1-.336.112h-1.2L51.46 1.036h1.568L57.612 12.5Zm6.593-6.664a.636.636 0 0 1-.127.136.287.287 0 0 1-.177.048.487.487 0 0 1-.264-.096 3.655 3.655 0 0 0-.36-.224 2.548 2.548 0 0 0-.52-.216 2.346 2.346 0 0 0-.752-.104c-.4 0-.752.072-1.056.216a2.03 2.03 0 0 0-.767.608c-.203.267-.358.59-.465.968a4.924 4.924 0 0 0-.151 1.272c0 .49.055.928.167 1.312.113.379.27.699.473.96.207.256.455.453.743.592.294.133.622.2.985.2.346 0 .632-.04.855-.12.224-.085.408-.179.553-.28a4.76 4.76 0 0 0 .367-.272.466.466 0 0 1 .296-.128c.118 0 .209.045.273.136l.4.52a2.838 2.838 0 0 1-.6.56 3.812 3.812 0 0 1-.729.392 4.017 4.017 0 0 1-.807.224c-.283.048-.571.072-.864.072-.507 0-.98-.093-1.416-.28a3.253 3.253 0 0 1-1.129-.808 3.846 3.846 0 0 1-.752-1.312c-.18-.517-.272-1.107-.272-1.768 0-.603.083-1.16.248-1.672.171-.512.416-.952.736-1.32a3.369 3.369 0 0 1 1.192-.872c.475-.208 1.02-.312 1.633-.312.57 0 1.072.093 1.504.28.437.181.824.44 1.16.776l-.376.512Zm6.393 3.016c-.656.021-1.216.075-1.68.16-.459.08-.835.187-1.128.32-.288.133-.499.29-.632.472a1.03 1.03 0 0 0-.192.608c0 .213.035.397.104.552.07.155.163.283.28.384.123.096.264.168.424.216.165.043.341.064.528.064.25 0 .48-.024.688-.072.208-.053.403-.128.584-.224.187-.096.363-.21.528-.344.17-.133.336-.285.496-.456v-1.68Zm-4.6-3.312c.448-.432.93-.755 1.448-.968a4.471 4.471 0 0 1 1.72-.32c.454 0 .856.075 1.208.224.352.15.648.357.888.624s.421.59.544.968c.123.379.184.795.184 1.248V12.5h-.632a.653.653 0 0 1-.32-.064c-.075-.048-.133-.139-.176-.272l-.16-.768a8.67 8.67 0 0 1-.624.528c-.203.15-.416.277-.64.384a3.446 3.446 0 0 1-.72.232 3.69 3.69 0 0 1-.84.088c-.314 0-.61-.043-.888-.128a2.147 2.147 0 0 1-.728-.4 1.938 1.938 0 0 1-.488-.664 2.41 2.41 0 0 1-.176-.96c0-.32.088-.627.264-.92.176-.299.462-.563.856-.792.395-.23.91-.416 1.544-.56.635-.15 1.413-.235 2.336-.256v-.632c0-.63-.136-1.104-.408-1.424-.272-.325-.67-.488-1.192-.488-.352 0-.648.045-.888.136-.234.085-.44.184-.616.296-.17.107-.32.205-.448.296a.641.641 0 0 1-.368.128.425.425 0 0 1-.248-.072.756.756 0 0 1-.176-.192l-.256-.456Zm13.441.784c-.266-.357-.554-.605-.864-.744a2.435 2.435 0 0 0-1.04-.216c-.752 0-1.33.27-1.736.808-.405.539-.608 1.307-.608 2.304 0 .528.046.981.136 1.36.09.373.224.683.4.928.176.24.392.416.648.528.256.112.547.168.872.168.47 0 .878-.107 1.224-.32.352-.213.675-.515.968-.904V6.324ZM80.863.716V12.5h-.848c-.202 0-.33-.099-.384-.296l-.128-.984a4.414 4.414 0 0 1-1.184 1.008c-.442.256-.954.384-1.536.384-.464 0-.885-.088-1.264-.264a2.657 2.657 0 0 1-.968-.792c-.266-.347-.472-.779-.616-1.296-.144-.517-.216-1.112-.216-1.784 0-.597.08-1.152.24-1.664.16-.517.39-.965.688-1.344a3.162 3.162 0 0 1 1.096-.888 3.246 3.246 0 0 1 1.472-.328c.496 0 .92.085 1.272.256.358.165.675.397.952.696V.716h1.424Zm7.673 6.848c0-.33-.048-.632-.144-.904a1.917 1.917 0 0 0-.408-.712 1.722 1.722 0 0 0-.648-.464 2.155 2.155 0 0 0-.872-.168c-.682 0-1.224.2-1.624.6-.394.395-.64.944-.736 1.648h4.432Zm1.152 3.8c-.176.213-.386.4-.632.56a4.03 4.03 0 0 1-.792.384 4.676 4.676 0 0 1-.864.224c-.298.053-.594.08-.888.08-.56 0-1.077-.093-1.552-.28a3.513 3.513 0 0 1-1.224-.832 3.89 3.89 0 0 1-.8-1.36c-.192-.539-.288-1.157-.288-1.856 0-.565.086-1.093.256-1.584a3.74 3.74 0 0 1 .752-1.272 3.374 3.374 0 0 1 1.192-.848 3.87 3.87 0 0 1 1.584-.312c.486 0 .934.083 1.344.248.416.16.774.395 1.072.704.304.304.542.683.712 1.136.171.448.256.96.256 1.536 0 .224-.024.373-.072.448-.048.075-.138.112-.272.112h-5.416c.016.512.086.957.208 1.336.128.379.304.696.528.952.224.25.491.44.8.568a2.8 2.8 0 0 0 1.04.184c.358 0 .664-.04.92-.12a4.608 4.608 0 0 0 1.136-.536c.128-.085.238-.128.328-.128.118 0 .208.045.272.136l.4.52Zm1.877 1.136V4.396h.856c.203 0 .328.099.376.296l.105.832c.298-.368.634-.67 1.007-.904a2.383 2.383 0 0 1 1.296-.352c.544 0 .984.152 1.32.456.342.304.587.715.736 1.232.118-.293.267-.547.449-.76a2.65 2.65 0 0 1 1.352-.832c.26-.064.525-.096.791-.096.427 0 .806.07 1.137.208.336.133.618.33.848.592.234.261.413.584.536.968.122.379.184.813.184 1.304v5.16h-1.432V7.34c0-.635-.139-1.115-.416-1.44-.278-.33-.678-.496-1.2-.496-.235 0-.46.043-.672.128-.209.08-.392.2-.552.36-.16.16-.288.363-.385.608-.09.24-.135.52-.135.84v5.16h-1.433V7.34c0-.65-.13-1.136-.391-1.456-.262-.32-.643-.48-1.144-.48a1.77 1.77 0 0 0-.977.288 3.173 3.173 0 0 0-.823.768v6.04h-1.433Zm19.946-8.104-4.52 10.496a.727.727 0 0 1-.184.256c-.07.064-.179.096-.328.096h-1.056l1.48-3.216-3.344-7.632h1.232a.41.41 0 0 1 .288.096.454.454 0 0 1 .152.2l2.168 5.104c.085.224.157.459.216.704.074-.25.154-.488.24-.712l2.104-5.096a.438.438 0 0 1 .16-.208.436.436 0 0 1 .264-.088h1.128Z" fill="#444"/></symbol>
  <symbol id="logo-image"" width="27" height="34" viewBox="0 0 27 34" fill="none"><path d="M13.64.02L13.5 0 0 1.4v24.61L13.5 34 27 26.01V1.41L13.64 0zm11.6 25L13.5 31.96 1.77 25.02v-10.1l11.68 6.93.02 1.25-8.02-4.75v1.23l8.04 4.8.02 1.3-8.05-4.76v1.22l8.04 4.81 8.12-4.83V16.9l3.62-2.15v10.26zm0-11.57L22 15.33l-1.48.88-7.06-4.19-.01 1.23 6.04 3.57-.06.03-.13.07-.86.5-4.98-2.95-.01 1.22 3.93 2.33-.93.61-.02.01-2.97-1.74-.01 1.23 1.94 1.13-1.98 1.19L1.8 13.58l11.63-6.96 11.8 6.83zm0-1.22L13.43 5.3 1.77 12.22V2.99L13.5 1.76 25.23 3v9.24z" fill="#666"/></symbol>

  <symbol id="gift" width="78" height="80" viewBox="0 0 78 80" fill="none"><path d="M64.016 34.713H14.03c-1.754 0-3.182-1.418-3.182-3.16v-9.469c0-1.742 1.428-3.16 3.182-3.16h49.984c1.754 0 3.18 1.418 3.18 3.16v9.469c0 1.742-1.426 3.16-3.18 3.16ZM14.03 21.346a.751.751 0 0 0-.744.738v9.469c0 .407.334.738.744.738h49.984c.41 0 .743-.331.743-.738v-9.469a.75.75 0 0 0-.743-.738H14.03Z" fill="#fff"/><path d="M57.045 67.149H20.999c-3.377 0-6.125-2.73-6.125-6.086V33.502c0-.669.546-1.212 1.219-1.212s1.219.543 1.219 1.212v27.56c0 2.021 1.654 3.665 3.687 3.665h36.046c2.032 0 3.686-1.644 3.686-3.664V33.502c0-.669.546-1.212 1.219-1.212.672 0 1.218.543 1.218 1.212v27.56c0 3.357-2.747 6.087-6.123 6.087Z" fill="#fff"/><path d="M39.023 67.149a1.215 1.215 0 0 1-1.22-1.211V33.502c0-.669.547-1.212 1.22-1.212.672 0 1.218.543 1.218 1.212v32.435c0 .67-.545 1.212-1.218 1.212ZM23.811 21.341c-3.814-2.054-5.238-6.808-3.173-10.6 2.064-3.789 6.848-5.204 10.665-3.154 5.814 3.13 8.954 11.86 9.084 12.23l-2.3.804c-.029-.083-2.961-8.222-7.944-10.904-2.635-1.415-5.937-.438-7.36 2.177-1.426 2.618-.444 5.9 2.19 7.318l-1.162 2.13Z" fill="#fff"/><path d="m54.231 21.341-1.16-2.13a5.376 5.376 0 0 0 2.622-3.207 5.327 5.327 0 0 0-.431-4.109 5.382 5.382 0 0 0-3.226-2.604 5.426 5.426 0 0 0-4.134.426c-4.982 2.682-7.915 10.82-7.944 10.903l-2.3-.803c.131-.37 3.27-9.101 9.084-12.23a7.859 7.859 0 0 1 5.99-.617 7.8 7.8 0 0 1 4.674 3.771 7.72 7.72 0 0 1 .623 5.953 7.788 7.788 0 0 1-3.798 4.647ZM61.95 50.931H16.093a1.215 1.215 0 0 1-1.219-1.21c0-.67.546-1.212 1.219-1.212H61.95c.672 0 1.218.543 1.218 1.211 0 .669-.545 1.211-1.218 1.211Z" fill="#fff"/>  </symbol>

</svg>
